<svg version="1.2" xmlns="http://www.w3.org/2000/svg" viewBox="0 0 458 458" width="458" height="458">
	<title>request</title>
	<style>
		.s0 { fill: #ff0000 } 
		.s1 { fill: #00b050 } 
		.s2 { fill: #ffc000 } 
		.s3 { fill: #0070c0 } 
	</style>
	<g id="Background">
		<path id="Path 1" class="s0" d="m179 16.5v15.5c-4.3 0.9-9.8 2.5-15 4.2-5.2 1.7-15.3 5.8-22.5 9.2-7.2 3.5-16.2 8.2-20 10.6-3.8 2.3-11.3 7.5-16.5 11.4-5.2 3.9-13.8 11.4-19.1 16.6-5.2 5.2-12.5 13.3-16.1 18-3.6 4.7-9 12.3-11.9 17-2.9 4.7-7.4 13-10 18.5-2.7 5.5-6.4 14.7-8.3 20.5-1.8 5.8-4.3 14.8-5.4 20-1.2 5.2-2.6 15.1-3.2 22-0.7 6.9-1 13.6-0.9 15 0.3 1.9 3.6-2.8 15.6-22.5 8.4-13.8 15.7-25.7 16.2-26.5 0.6-1.1 4.4 4.4 14.7 21.5 12 20 13.9 22.7 14.5 20.5 0.3-1.4 1.2-6.6 1.9-11.5 0.6-4.9 2.3-12.6 3.7-17 1.4-4.4 4.2-11.6 6.3-16 2.1-4.4 6-11.4 8.7-15.5 2.8-4.1 7.5-10.4 10.5-14 3.1-3.6 9.1-9.5 13.4-13.1 4.4-3.7 11.1-8.7 14.9-11.2 3.9-2.5 11.3-6.6 16.5-9.1 5.2-2.6 10.1-4.6 10.8-4.6 0.9 0 1.3 3.6 1.5 13.9l0.2 13.8c77.5-47 100.1-61 100.2-61.4 0.2-0.5-22.2-14.4-49.7-31.1-27.5-16.6-50.2-30.2-50.5-30.2-0.3 0-0.5 7-0.5 15.5z"/>
		<path id="Path 2" class="s1" d="m31.2 227.8c-16.6 27.3-30.2 50-30.2 50.4 0 0.5 6.9 0.8 15.3 0.8h15.2c4.4 14.3 6.8 21.4 8.2 25 1.4 3.6 5 11.4 8 17.5 3.1 6.1 8.4 15.3 11.8 20.5 3.5 5.2 9.9 13.8 14.2 19 4.4 5.2 11.3 12.6 15.4 16.3 4.1 3.8 11.4 9.9 16.4 13.6 5 3.7 11.7 8.3 15 10.3 3.3 2 10.7 5.9 16.5 8.7 5.8 2.7 15.2 6.6 21 8.5 5.8 1.9 14.8 4.4 20 5.5 5.2 1.1 14.4 2.5 20.5 3.1 6.1 0.7 12.8 1 15 0.8 3.9-0.3 3.5-0.6-21-15.5-13.8-8.4-25.6-15.6-26.3-16-0.9-0.5 5.9-5.2 19.5-13.5 11.4-7 21.7-13.3 22.8-14.2 2-1.4 2-1.4-0.5-2-1.4-0.2-5.2-0.7-8.5-1-3.3-0.3-9.6-1.5-14-2.6-4.4-1.1-11.6-3.5-16-5.3-4.4-1.8-11.8-5.5-16.4-8.2-4.5-2.8-12.2-8.2-17-12.1-4.7-3.9-11.6-10.7-15.2-15-3.7-4.4-8.8-11.3-11.5-15.4-2.6-4.1-6.7-11.6-9.1-16.5-2.3-5-4.3-9.6-4.3-10.3 0-0.9 3.6-1.3 13.9-1.5l13.9-0.2c-10.4-17.1-24.2-39.7-37.4-61.3-13.1-21.6-24.1-39.3-24.4-39.2-0.3 0-14.1 22.4-30.8 49.7z"/>
		<path id="Path 3" class="s2" d="m412 266.1c-8.4 14-15.6 25.8-15.9 26.2-0.3 0.5-6.8-9.3-14.3-21.7-7.6-12.4-14-22.5-14.3-22.4-0.2 0.2-0.9 4.1-1.5 8.8-0.6 4.7-2 12.1-3.2 16.5-1.1 4.4-3.7 11.8-5.7 16.5-2 4.7-5.9 12.1-8.6 16.5-2.7 4.4-7.7 11.3-11 15.4-3.3 4.1-9.1 10.2-13 13.6-3.9 3.3-10.4 8.4-14.5 11.1-4.1 2.8-11.6 7.2-16.5 9.7-4.9 2.5-10.2 4.8-11.7 5.1l-2.8 0.6-0.5-27.7c-77.5 47.1-100.1 61.1-100.3 61.5-0.1 0.4 22.2 14.3 49.5 30.9 27.4 16.6 50.1 30.3 50.5 30.3 0.5 0 0.8-6.9 0.8-15.3v-15.2c23.1-7.5 34.6-12.1 41.3-15.5 6.4-3.3 15.4-8.4 19.9-11.3 4.6-3 11.7-8.1 15.8-11.4 4.1-3.2 10.4-8.6 13.9-11.9 3.5-3.2 9.6-9.7 13.5-14.4 3.9-4.7 10.3-13.2 14.1-19 3.8-5.8 9.2-15.5 12.1-21.5 2.9-6.1 6.6-14.8 8.2-19.5 1.6-4.7 4.1-13.7 5.5-20 1.4-6.3 3.1-17.1 3.8-24 0.6-6.9 0.9-13.6 0.7-14.9-0.4-2-3.5 2.6-15.8 23z"/>
		<path id="Path 4" class="s3" d="m244.2 31c0.2 0.7 11.1 7.8 24.3 15.9 13.3 8 24.2 15.1 24.3 15.6 0.1 0.5-9.8 7-22.1 14.4-17.8 10.8-21.8 13.6-20.2 14.2 1.1 0.4 3.8 0.8 6 0.9 2.2 0 7.8 0.9 12.5 1.9 4.7 1.1 11.9 3.2 16 4.6 4.1 1.5 9.8 3.9 12.5 5.2 2.8 1.4 8.6 4.9 13 7.7 4.4 2.9 11.1 8 15 11.3 3.9 3.3 9.7 9.4 13.1 13.4 3.3 4.1 7.9 10.1 10.1 13.4 2.3 3.3 6.4 10.7 9.2 16.5 2.8 5.8 5.1 11.1 5.1 11.7 0 1-3.6 1.4-13.8 1.5l-13.9 0.3c47.1 77.5 61.1 100.1 61.5 100.3 0.4 0.1 14.3-22.2 30.9-49.5 16.6-27.4 30.3-50.1 30.3-50.5 0-0.5-6.9-0.8-15.2-0.8h-15.3c-4.4-14.3-6.8-21.4-8.2-25-1.4-3.6-5-11.4-8-17.5-3.1-6.1-8.4-15.3-11.8-20.5-3.5-5.2-9.9-13.8-14.2-19-4.4-5.2-10.9-12.1-14.4-15.4-3.5-3.2-10-8.6-14.4-12.1-4.4-3.5-11.6-8.5-16-11.3-4.4-2.7-11.6-6.7-16-8.9-4.4-2.2-12.3-5.6-17.5-7.6-5.2-1.9-14.2-4.6-20-6-5.8-1.4-13.9-3-18-3.6-4.1-0.5-11.4-1.3-16.3-1.6-6.6-0.5-8.7-0.4-8.5 0.5z"/>
	</g>
</svg>